<?xml version="1.0" encoding="UTF-8"?>
<svg id="a" xmlns="http://www.w3.org/2000/svg" viewBox="0 0 16 16"><defs><style>.b{fill:#f5a;}.c{fill:#ff0062;}</style></defs><path class="c" d="M16,5.148c0-2.567-1.976-4.648-4.414-4.648-1.48,0-2.785,.769-3.586,1.945C7.063,1.07,5.436,.251,3.648,.568,2.413,.787,1.328,1.633,.674,2.758-.047,3.999-.112,5.161,.119,6.204c.579,3.787,4.387,7.77,7.364,9.18,.329,.156,.705,.156,1.033,0,2.977-1.41,6.786-5.393,7.363-9.179,.076-.34,.12-.692,.12-1.056h0Z"/><path class="b" d="M12.302,1.569c-1.274-.313-2.722,.306-3.476,1.439l-.826,1.213c-.118-.165-.407-.607-.671-.986-.203-.291-.626-.274-.826,.019-1.076,1.578-2.506,2.891-4.18,3.826-.451,.252-.618,.816-.397,1.282,.665,1.405,1.71,3.487,3.079,2.976,3.479-2.064,6.193-5.268,7.652-9.094,.107-.282-.062-.604-.355-.676Z"/></svg>